<svg width="1290" height="168" viewBox="0 0 1290 168" fill="none" xmlns="http://www.w3.org/2000/svg">
<path d="M201.597 0C202.49 0 203.249 0.312484 203.874 0.937452C204.499 1.56242 204.812 2.32131 204.812 3.21412V9.73164C204.812 10.6245 204.499 11.3833 203.874 12.0083C203.249 12.6333 202.49 12.9458 201.597 12.9458H192.401C191.568 12.9458 190.839 12.6333 190.214 12.0083C189.589 11.3833 189.277 10.6245 189.277 9.73164V3.21412C189.277 2.32131 189.589 1.56242 190.214 0.937452C190.839 0.312484 191.568 0 192.401 0H201.597ZM241.506 0C242.339 0 243.068 0.312484 243.693 0.937452C244.318 1.56242 244.631 2.32131 244.631 3.21412V9.73164C244.631 10.6245 244.318 11.3833 243.693 12.0083C243.068 12.6333 242.339 12.9458 241.506 12.9458H223.561V63.6574C223.561 64.4907 223.248 65.2198 222.623 65.8448C221.998 66.4698 221.269 66.7823 220.436 66.7823H213.561C212.668 66.7823 211.909 66.4698 211.284 65.8448C210.659 65.2198 210.347 64.4907 210.347 63.6574V3.21412C210.347 2.32131 210.659 1.56242 211.284 0.937452C211.909 0.312484 212.668 0 213.561 0H241.506ZM270.049 22.856C269.216 22.856 268.487 22.5435 267.862 21.9185C267.237 21.2935 266.924 20.5644 266.924 19.7311V3.12484C266.924 2.29155 267.237 1.56242 267.862 0.937452C268.487 0.312484 269.216 0 270.049 0H276.835C277.727 0 278.471 0.312484 279.067 0.937452C279.662 1.56242 279.959 2.29155 279.959 3.12484V19.7311C279.959 20.5644 279.662 21.2935 279.067 21.9185C278.471 22.5435 277.727 22.856 276.835 22.856H270.049ZM318.529 0C319.362 0 320.091 0.312484 320.716 0.937452C321.341 1.56242 321.654 2.29155 321.654 3.12484V63.1217C321.654 63.955 321.341 64.6842 320.716 65.3091C320.091 65.9341 319.362 66.2466 318.529 66.2466H311.744C310.851 66.2466 310.107 65.9341 309.511 65.3091C308.916 64.6842 308.619 63.955 308.619 63.1217V39.5515H279.959V63.1217C279.959 63.955 279.662 64.6842 279.067 65.3091C278.471 65.9341 277.727 66.2466 276.835 66.2466H270.049C269.216 66.2466 268.487 65.9341 267.862 65.3091C267.237 64.6842 266.924 63.955 266.924 63.1217V29.7306C266.924 28.8973 267.237 28.1682 267.862 27.5432C268.487 26.9183 269.216 26.6058 270.049 26.6058H308.619V3.12484C308.619 2.29155 308.916 1.56242 309.511 0.937452C310.107 0.312484 310.851 0 311.744 0H318.529ZM397.159 53.3901C398.052 53.3901 398.796 53.7026 399.391 54.3276C399.986 54.9525 400.284 55.7114 400.284 56.6042V63.1217C400.284 63.955 399.986 64.6842 399.391 65.3091C398.796 65.9341 398.052 66.2466 397.159 66.2466H353.054C352.221 66.2466 351.491 65.9341 350.867 65.3091C350.242 64.6842 349.929 63.955 349.929 63.1217V56.6042C349.929 55.7114 350.242 54.9525 350.867 54.3276C351.491 53.7026 352.221 53.3901 353.054 53.3901H397.159ZM353.054 39.5515C352.221 39.5515 351.491 39.239 350.867 38.6141C350.242 37.9891 349.929 37.26 349.929 36.4267V29.7306C349.929 28.8973 350.242 28.1682 350.867 27.5432C351.491 26.9183 352.221 26.6058 353.054 26.6058H393.141C394.034 26.6058 394.793 26.9183 395.418 27.5432C396.043 28.1682 396.355 28.8973 396.355 29.7306V36.4267C396.355 37.26 396.043 37.9891 395.418 38.6141C394.793 39.239 394.034 39.5515 393.141 39.5515H353.054ZM397.159 0C398.052 0 398.796 0.312484 399.391 0.937452C399.986 1.56242 400.284 2.29155 400.284 3.12484V9.64236C400.284 10.5352 399.986 11.2941 399.391 11.919C398.796 12.544 398.052 12.8565 397.159 12.8565H353.054C352.221 12.8565 351.491 12.544 350.867 11.919C350.242 11.2941 349.929 10.5352 349.929 9.64236V3.12484C349.929 2.29155 350.242 1.56242 350.867 0.937452C351.491 0.312484 352.221 0 353.054 0H397.159ZM499.778 40.6229L513.26 61.2468C513.915 62.3182 513.944 63.3896 513.349 64.461C513.111 64.9371 512.739 65.324 512.233 65.6216C511.727 65.9192 511.206 66.068 510.671 66.068H502.546C502.01 66.068 501.505 65.9341 501.028 65.6662C500.552 65.3984 500.195 65.0562 499.957 64.6395L486.386 43.1228H470.494V62.9432C470.494 63.7765 470.182 64.5056 469.557 65.1306C468.932 65.7555 468.203 66.068 467.369 66.068H460.584C459.751 66.068 459.022 65.7555 458.397 65.1306C457.772 64.5056 457.459 63.7765 457.459 62.9432V33.5697C457.459 32.7364 457.772 32.0073 458.397 31.3823C459.022 30.7573 459.751 30.4449 460.584 30.4449H488.083C493.32 30.4449 496.802 28.9568 498.529 25.9808C499.124 25.0285 499.421 23.6595 499.421 21.8739C499.421 19.0764 498.499 16.8741 496.654 15.2671C494.749 13.541 492.011 12.6779 488.44 12.6779H460.584C459.751 12.6779 459.022 12.3654 458.397 11.7405C457.772 11.1155 457.459 10.3864 457.459 9.55308V3.12484C457.459 2.29155 457.772 1.56242 458.397 0.937452C459.022 0.312484 459.751 0 460.584 0H489.243C496.207 0 501.772 1.96419 505.939 5.89255C510.284 9.82092 512.456 15.148 512.456 21.8739C512.456 26.2189 511.504 29.9241 509.599 32.9894C507.695 36.0547 504.927 38.3909 501.296 39.9979L499.778 40.6229ZM585.104 53.3901C585.997 53.3901 586.741 53.7026 587.336 54.3276C587.932 54.9525 588.229 55.7114 588.229 56.6042V63.1217C588.229 63.955 587.932 64.6842 587.336 65.3091C586.741 65.9341 585.997 66.2466 585.104 66.2466H541C540.166 66.2466 539.437 65.9341 538.812 65.3091C538.187 64.6842 537.875 63.955 537.875 63.1217V56.6042C537.875 55.7114 538.187 54.9525 538.812 54.3276C539.437 53.7026 540.166 53.3901 541 53.3901H585.104ZM541 39.5515C540.166 39.5515 539.437 39.239 538.812 38.6141C538.187 37.9891 537.875 37.26 537.875 36.4267V29.7306C537.875 28.8973 538.187 28.1682 538.812 27.5432C539.437 26.9183 540.166 26.6058 541 26.6058H581.087C581.98 26.6058 582.738 26.9183 583.363 27.5432C583.988 28.1682 584.301 28.8973 584.301 29.7306V36.4267C584.301 37.26 583.988 37.9891 583.363 38.6141C582.738 39.239 581.98 39.5515 581.087 39.5515H541ZM585.104 0C585.997 0 586.741 0.312484 587.336 0.937452C587.932 1.56242 588.229 2.29155 588.229 3.12484V9.64236C588.229 10.5352 587.932 11.2941 587.336 11.919C586.741 12.544 585.997 12.8565 585.104 12.8565H541C540.166 12.8565 539.437 12.544 538.812 11.919C538.187 11.2941 537.875 10.5352 537.875 9.64236V3.12484C537.875 2.29155 538.187 1.56242 538.812 0.937452C539.437 0.312484 540.166 0 541 0H585.104ZM647.932 12.9458C647.217 12.8267 646.622 12.4696 646.146 11.8744C645.67 11.2792 645.432 10.6245 645.432 9.9102V3.12484C645.432 2.23203 645.789 1.4285 646.503 0.714248C647.277 0.119041 648.14 -0.0892812 649.092 0.089281C656.116 1.2797 662.068 4.40453 666.948 9.4638C669.448 12.0827 671.472 15.0587 673.02 18.3919C673.258 18.8086 673.362 19.2847 673.332 19.8204C673.302 20.3561 673.139 20.862 672.841 21.3382C672.543 21.8143 672.171 22.1864 671.725 22.4542C671.279 22.722 670.788 22.856 670.252 22.856H662.663C662.127 22.856 661.621 22.722 661.145 22.4542C660.669 22.1864 660.282 21.8143 659.984 21.3382C659.151 20.0882 658.377 19.1062 657.663 18.3919C654.985 15.654 651.741 13.8386 647.932 12.9458ZM638.825 0.714248C639.539 1.4285 639.896 2.23203 639.896 3.12484V9.9102C639.896 10.6245 639.658 11.2792 639.182 11.8744C638.706 12.4696 638.111 12.8267 637.396 12.9458C633.587 13.8386 630.343 15.654 627.665 18.3919C623.974 22.3798 622.129 27.3647 622.129 33.3465C622.129 39.3283 623.974 44.3132 627.665 48.3011C630.224 51.039 633.468 52.8544 637.396 53.7472C638.111 53.8663 638.706 54.2234 639.182 54.8186C639.658 55.4138 639.896 56.0685 639.896 56.7828V63.5681C639.896 64.5205 639.509 65.324 638.736 65.9787C638.14 66.4549 637.486 66.693 636.771 66.693H636.236C629.093 65.3835 623.141 62.2289 618.379 57.2292C612.189 50.8605 609.094 42.8996 609.094 33.3465C609.094 23.7934 612.189 15.8325 618.379 9.4638C623.201 4.40453 629.153 1.2797 636.236 0.089281C637.188 -0.0892812 638.051 0.119041 638.825 0.714248ZM676.144 31.5162C676.204 31.9329 676.234 32.5578 676.234 33.3911C676.234 34.7006 676.144 36.2184 675.966 37.9445C675.073 45.5036 672.067 51.9318 666.948 57.2292C662.068 62.2884 656.116 65.443 649.092 66.693H648.557C647.842 66.693 647.158 66.4549 646.503 65.9787C645.789 65.2645 645.432 64.461 645.432 63.5681V56.7828C645.432 56.0685 645.67 55.4138 646.146 54.8186C646.622 54.2234 647.217 53.8663 647.932 53.7472C651.86 52.8544 655.104 51.039 657.663 48.3011C659.746 46.0988 661.234 43.5692 662.127 40.7122H643.2C642.307 40.7122 641.563 40.4146 640.968 39.8194C640.372 39.2242 640.075 38.4802 640.075 37.5873V31.2484C640.075 30.4151 640.372 29.686 640.968 29.061C641.563 28.436 642.307 28.1235 643.2 28.1235H673.02C673.853 28.1235 674.567 28.4063 675.162 28.9717C675.757 29.5372 676.085 30.2365 676.144 31.0698V31.5162ZM722.901 53.8365C723.615 54.0746 724.181 54.4764 724.597 55.0418C725.014 55.6072 725.222 56.2471 725.222 56.9613V63.836C725.222 64.7883 724.835 65.5918 724.062 66.2466C723.466 66.7227 722.812 66.9608 722.097 66.9608C721.8 66.9608 721.591 66.9311 721.472 66.8715C715.937 65.8002 711.175 63.2408 707.187 59.1934C701.831 53.7175 699.152 46.5155 699.152 37.5873V3.21412C699.152 2.32131 699.465 1.56242 700.09 0.937452C700.715 0.312484 701.444 0 702.277 0H709.152C710.044 0 710.803 0.312484 711.428 0.937452C712.053 1.56242 712.366 2.32131 712.366 3.21412V37.7659C712.366 43.4204 713.973 47.7356 717.187 50.7117C718.853 52.2592 720.758 53.3008 722.901 53.8365ZM753.703 0C754.596 0 755.355 0.312484 755.98 0.937452C756.604 1.56242 756.917 2.32131 756.917 3.21412V37.5873C756.917 46.5155 754.239 53.7175 748.882 59.1934C744.894 63.2408 740.132 65.8002 734.597 66.8715C734.478 66.9311 734.269 66.9608 733.972 66.9608C733.257 66.9608 732.603 66.7227 732.008 66.2466C731.234 65.6514 730.847 64.8181 730.847 63.7467V56.8721C730.847 56.2173 731.055 55.6072 731.472 55.0418C731.889 54.4764 732.454 54.0746 733.168 53.8365C735.43 53.1818 737.335 52.1402 738.882 50.7117C742.096 47.8547 743.703 43.5394 743.703 37.7659V3.21412C743.703 2.32131 744.016 1.56242 744.641 0.937452C745.266 0.312484 746.025 0 746.917 0H753.703ZM794.388 0C795.222 0 795.951 0.312484 796.576 0.937452C797.201 1.56242 797.513 2.29155 797.513 3.12484V62.9432C797.513 63.7765 797.201 64.5056 796.576 65.1306C795.951 65.7555 795.222 66.068 794.388 66.068H787.603C786.77 66.068 786.041 65.7555 785.416 65.1306C784.791 64.5056 784.478 63.7765 784.478 62.9432V3.12484C784.478 2.29155 784.791 1.56242 785.416 0.937452C786.041 0.312484 786.77 0 787.603 0H794.388ZM826.976 53.3008C827.869 53.3008 828.613 53.6133 829.208 54.2383C829.803 54.8632 830.101 55.5924 830.101 56.4257V62.9432C830.101 63.7765 829.803 64.5056 829.208 65.1306C828.613 65.7555 827.869 66.068 826.976 66.068H806.173C805.281 66.068 804.537 65.7555 803.941 65.1306C803.346 64.5056 803.049 63.7765 803.049 62.9432V56.4257C803.049 55.5924 803.346 54.8632 803.941 54.2383C804.537 53.6133 805.281 53.3008 806.173 53.3008H826.976ZM911.32 61.8718C911.736 62.8241 911.632 63.7913 911.007 64.7734C910.382 65.7555 909.534 66.2466 908.463 66.2466H849.002C848.466 66.2466 847.96 66.1127 847.484 65.8448C847.008 65.577 846.65 65.2347 846.412 64.8181C845.758 63.8657 845.668 62.8837 846.145 61.8718L848.912 55.3543C849.15 54.7591 849.537 54.2829 850.073 53.9258C850.609 53.5687 851.174 53.3901 851.769 53.3901H893.374L878.732 18.3919L866.768 46.9619C866.53 47.5571 866.158 48.0184 865.652 48.3457C865.147 48.6731 864.566 48.8368 863.912 48.8368H856.412C855.281 48.8368 854.388 48.3606 853.733 47.4083C853.495 46.9916 853.347 46.5155 853.287 45.9798C853.228 45.4441 853.287 44.9382 853.466 44.462L871.59 1.96418C871.828 1.36898 872.2 0.89281 872.706 0.535686C873.212 0.178562 873.792 0 874.447 0H883.018C883.672 0 884.253 0.178562 884.759 0.535686C885.265 0.89281 885.637 1.36898 885.875 1.96418L911.32 61.8718ZM939.417 0C940.309 0 941.068 0.312484 941.693 0.937452C942.318 1.56242 942.631 2.32131 942.631 3.21412V9.73164C942.631 10.6245 942.318 11.3833 941.693 12.0083C941.068 12.6333 940.309 12.9458 939.417 12.9458H930.221C929.387 12.9458 928.658 12.6333 928.033 12.0083C927.408 11.3833 927.096 10.6245 927.096 9.73164V3.21412C927.096 2.32131 927.408 1.56242 928.033 0.937452C928.658 0.312484 929.387 0 930.221 0H939.417ZM979.325 0C980.158 0 980.888 0.312484 981.513 0.937452C982.138 1.56242 982.45 2.32131 982.45 3.21412V9.73164C982.45 10.6245 982.138 11.3833 981.513 12.0083C980.888 12.6333 980.158 12.9458 979.325 12.9458H961.38V63.6574C961.38 64.4907 961.067 65.2198 960.442 65.8448C959.817 66.4698 959.088 66.7823 958.255 66.7823H951.38C950.487 66.7823 949.729 66.4698 949.104 65.8448C948.479 65.2198 948.166 64.4907 948.166 63.6574V3.21412C948.166 2.32131 948.479 1.56242 949.104 0.937452C949.729 0.312484 950.487 0 951.38 0H979.325ZM1051.97 53.3901C1052.87 53.3901 1053.61 53.7026 1054.21 54.3276C1054.8 54.9525 1055.1 55.7114 1055.1 56.6042V63.1217C1055.1 63.955 1054.8 64.6842 1054.21 65.3091C1053.61 65.9341 1052.87 66.2466 1051.97 66.2466H1007.87C1007.04 66.2466 1006.31 65.9341 1005.68 65.3091C1005.06 64.6842 1004.74 63.955 1004.74 63.1217V56.6042C1004.74 55.7114 1005.06 54.9525 1005.68 54.3276C1006.31 53.7026 1007.04 53.3901 1007.87 53.3901H1051.97ZM1007.87 39.5515C1007.04 39.5515 1006.31 39.239 1005.68 38.6141C1005.06 37.9891 1004.74 37.26 1004.74 36.4267V29.7306C1004.74 28.8973 1005.06 28.1682 1005.68 27.5432C1006.31 26.9183 1007.04 26.6058 1007.87 26.6058H1047.96C1048.85 26.6058 1049.61 26.9183 1050.23 27.5432C1050.86 28.1682 1051.17 28.8973 1051.17 29.7306V36.4267C1051.17 37.26 1050.86 37.9891 1050.23 38.6141C1049.61 39.239 1048.85 39.5515 1047.96 39.5515H1007.87ZM1051.97 0C1052.87 0 1053.61 0.312484 1054.21 0.937452C1054.8 1.56242 1055.1 2.29155 1055.1 3.12484V9.64236C1055.1 10.5352 1054.8 11.2941 1054.21 11.919C1053.61 12.544 1052.87 12.8565 1051.97 12.8565H1007.87C1007.04 12.8565 1006.31 12.544 1005.68 11.919C1005.06 11.2941 1004.74 10.5352 1004.74 9.64236V3.12484C1004.74 2.29155 1005.06 1.56242 1005.68 0.937452C1006.31 0.312484 1007.04 0 1007.87 0H1051.97ZM1119.62 2.32131C1123.25 3.69029 1126.53 5.89255 1129.44 8.92811C1135.69 15.2373 1138.82 23.2875 1138.82 33.0786C1138.82 42.8698 1135.69 50.9497 1129.44 57.3185C1126.53 60.354 1123.25 62.5563 1119.62 63.9253C1115.87 65.4728 1112.03 66.2466 1108.1 66.2466H1082.84C1082 66.2466 1081.28 65.9341 1080.65 65.3091C1080.03 64.6842 1079.71 63.955 1079.71 63.1217V56.6935C1079.71 55.8007 1080.03 55.0418 1080.65 54.4168C1081.28 53.7919 1082 53.4794 1082.84 53.4794H1107.84C1113.13 53.4794 1117.43 51.545 1120.74 47.6761C1124.04 43.8073 1125.69 38.9563 1125.69 33.1233C1125.69 27.2903 1124.04 22.4393 1120.74 18.5705C1117.43 14.7016 1113.13 12.7672 1107.84 12.7672H1082.84C1082 12.7672 1081.28 12.4547 1080.65 11.8297C1080.03 11.2048 1079.71 10.4459 1079.71 9.55308V3.12484C1079.71 2.29155 1080.03 1.56242 1080.65 0.937452C1081.28 0.312484 1082 0 1082.84 0H1108.1C1112.03 0 1115.87 0.773769 1119.62 2.32131ZM1254.74 61.8718C1255.16 62.8241 1255.05 63.7913 1254.43 64.7734C1253.8 65.7555 1252.95 66.2466 1251.88 66.2466H1192.42C1191.89 66.2466 1191.38 66.1127 1190.9 65.8448C1190.43 65.577 1190.07 65.2347 1189.83 64.8181C1189.18 63.8657 1189.09 62.8837 1189.56 61.8718L1192.33 55.3543C1192.57 54.7591 1192.96 54.2829 1193.49 53.9258C1194.03 53.5687 1194.59 53.3901 1195.19 53.3901H1236.79L1222.15 18.3919L1210.19 46.9619C1209.95 47.5571 1209.58 48.0184 1209.07 48.3457C1208.57 48.6731 1207.99 48.8368 1207.33 48.8368H1199.83C1198.7 48.8368 1197.81 48.3606 1197.15 47.4083C1196.92 46.9916 1196.77 46.5155 1196.71 45.9798C1196.65 45.4441 1196.71 44.9382 1196.89 44.462L1215.01 1.96418C1215.25 1.36898 1215.62 0.89281 1216.13 0.535686C1216.63 0.178562 1217.21 0 1217.87 0H1226.44C1227.09 0 1227.67 0.178562 1228.18 0.535686C1228.68 0.89281 1229.06 1.36898 1229.29 1.96418L1254.74 61.8718ZM1286.41 26.5165C1287.3 26.5165 1288.04 26.829 1288.64 27.4539C1289.23 28.0789 1289.53 28.8378 1289.53 29.7306V63.1217C1289.53 63.955 1289.23 64.6842 1288.64 65.3091C1288.04 65.9341 1287.3 66.2466 1286.41 66.2466H1279.62C1278.79 66.2466 1278.06 65.9341 1277.43 65.3091C1276.81 64.6842 1276.5 63.955 1276.5 63.1217V29.7306C1276.5 28.8378 1276.81 28.0789 1277.43 27.4539C1278.06 26.829 1278.79 26.5165 1279.62 26.5165H1286.41ZM1286.41 0C1287.3 0 1288.04 0.312484 1288.64 0.937452C1289.23 1.56242 1289.53 2.29155 1289.53 3.12484V19.6418C1289.53 20.5347 1289.23 21.2935 1288.64 21.9185C1288.04 22.5435 1287.3 22.856 1286.41 22.856H1279.62C1278.79 22.856 1278.06 22.5435 1277.43 21.9185C1276.81 21.2935 1276.5 20.5347 1276.5 19.6418V3.12484C1276.5 2.29155 1276.81 1.56242 1277.43 0.937452C1278.06 0.312484 1278.79 0 1279.62 0H1286.41Z" fill="#D00019"/>
<path d="M202.596 123.674H203.922L196.391 165.801H195.066L202.596 123.674ZM200.672 123.674H201.992L194.456 165.801H193.136L200.672 123.674ZM198.737 123.674H200.062L192.532 165.801H191.207L198.737 123.674ZM196.812 123.674H198.132L190.602 165.801H189.277L196.812 123.674ZM232.69 123.674L232.69 123.686H234.093L241.623 165.812H240.298L235.606 139.589L224.444 165.812H223.03L235.191 137.249L234.997 136.174L222.376 165.812H220.962L234.575 133.833L234.381 132.757L220.308 165.812H218.894L233.959 130.419L233.771 129.348L218.244 165.812H216.83L233.35 127.001L233.155 125.925L216.177 165.806H213.665L202.918 140.121L198.327 165.806H197.001L204.532 123.68H205.857L205.851 123.707L219.038 155.747L232.69 123.674ZM214.912 165.431L215.195 164.76L203.528 136.668L203.334 137.755L214.912 165.431ZM215.91 163.085L216.237 162.32L204.143 133.208L203.949 134.295L215.91 163.085ZM216.952 160.64L217.279 159.875L204.764 129.748L204.57 130.835L216.952 160.64ZM217.995 158.194L218.316 157.434L205.419 126.094L205.191 127.375L217.995 158.194ZM234.673 123.678H235.998L243.528 165.804H242.209L234.673 123.678ZM236.605 123.678H237.93L245.46 165.804H244.135L236.605 123.678ZM238.534 123.678H239.853L247.389 165.804H246.064L238.534 123.678ZM241.782 123.678L249.318 165.804H247.993L240.463 123.678H241.782ZM279.675 122.662C291.868 122.662 301.788 132.577 301.788 144.776C301.788 156.969 291.868 166.889 279.675 166.889C267.481 166.889 257.561 156.969 257.561 144.776C257.561 132.582 267.481 122.662 279.675 122.662ZM279.675 165.58C291.148 165.58 300.485 156.242 300.485 144.77C300.485 133.297 291.148 123.959 279.675 123.959C268.202 123.959 258.864 133.291 258.864 144.77C258.864 156.248 268.202 165.58 279.675 165.58ZM279.675 124.612C290.792 124.612 299.837 133.656 299.831 144.768C299.831 155.881 290.787 164.925 279.675 164.925C268.562 164.925 259.518 155.887 259.518 144.768C259.518 133.656 268.556 124.612 279.675 124.612ZM279.675 163.628C290.072 163.628 298.534 155.166 298.528 144.775C298.528 134.372 290.072 125.916 279.675 125.916C269.277 125.916 260.816 134.378 260.816 144.775C260.816 155.172 269.278 163.628 279.675 163.628ZM279.675 126.565C289.717 126.565 297.879 134.733 297.879 144.769C297.879 154.805 289.711 162.973 279.675 162.973C269.638 162.973 261.47 154.805 261.47 144.769C261.47 134.733 269.638 126.565 279.675 126.565ZM279.675 161.671C288.996 161.671 296.576 154.091 296.576 144.77C296.576 135.449 288.996 127.869 279.675 127.869C270.354 127.869 262.774 135.449 262.774 144.77C262.774 154.091 270.354 161.671 279.675 161.671ZM279.675 128.518C288.636 128.518 295.927 135.81 295.927 144.77C295.927 153.731 288.635 161.023 279.675 161.023C270.714 161.023 263.422 153.731 263.422 144.77C263.422 135.81 270.714 128.518 279.675 128.518ZM279.675 159.719C287.92 159.719 294.624 153.015 294.624 144.77C294.624 136.524 287.92 129.82 279.675 129.82C271.429 129.82 264.725 136.524 264.725 144.77C264.725 153.015 271.429 159.719 279.675 159.719ZM279.675 130.474C287.56 130.474 293.976 136.884 293.97 144.769C293.97 152.649 287.56 159.064 279.675 159.064C271.79 159.064 265.374 152.654 265.374 144.769C265.374 136.889 271.79 130.474 279.675 130.474ZM279.675 157.767C286.844 157.767 292.672 151.939 292.672 144.77C292.672 137.6 286.839 131.772 279.675 131.772C272.51 131.772 266.677 137.6 266.677 144.77C266.677 151.939 272.51 157.767 279.675 157.767ZM306.979 123.674H308.365L323.52 165.801H322.14L306.979 123.674ZM308.997 123.674H310.384L325.539 165.801H324.158L308.997 123.674ZM311.016 123.674H312.402L327.557 165.801H326.177L311.016 123.674ZM313.034 123.674H314.421L329.576 165.801H328.195L313.034 123.674ZM345.456 123.674L346.842 123.674L331.687 165.801H330.212L315.052 123.674H316.438L326.913 152.786L337.382 123.674H338.768L327.6 154.704L327.922 155.586L339.4 123.673H340.786L328.61 157.509L328.926 158.39L341.419 123.672H342.805L329.619 160.313L329.94 161.195L343.437 123.67H344.823L330.661 163.03L330.589 163.008L330.949 164.001L345.456 123.674ZM357.58 165.808H356.277V123.669H357.58V165.808ZM359.587 165.808H358.284V123.669H359.587V165.808ZM361.6 165.808H360.297V123.669H361.6V165.808ZM363.607 165.808H362.304V123.669H363.607V165.808ZM380.903 124.967L365.621 124.967V125.677H380.903V126.98H365.621V127.685H380.903V128.988H365.621V129.697H380.903V131H365.621V131.705H380.903V133.008H365.621V141.104H376.739V142.407H365.621V143.117H376.739V144.414H365.621V145.124H376.739V146.427H365.621V147.131H376.739V148.434H365.621V149.144H376.739V150.447H365.621V156.463H380.903V157.767H365.621V158.471H380.903V159.774H365.621V160.484H380.903V161.781H365.621V162.491H380.903V163.794H365.621V164.498H380.903V165.801H364.317V123.669H380.903V124.967ZM405.151 123.674H406.476L398.946 165.801H397.621L405.151 123.674ZM403.226 123.674H404.546L397.011 165.801H395.691L403.226 123.674ZM401.292 123.674H402.617L395.087 165.801H393.761L401.292 123.674ZM399.367 123.674H400.687L393.157 165.801H391.831L399.367 123.674ZM435.245 123.674L435.245 123.686H436.647L444.178 165.812H442.852L438.161 139.589L426.999 165.812H425.585L437.745 137.249L437.551 136.174L424.931 165.812H423.517L437.13 133.833L436.936 132.757L422.862 165.812H421.448L436.514 130.419L436.325 129.348L420.799 165.812H419.385L435.904 127.001L435.71 125.925L418.731 165.806H416.219L405.473 140.121L400.881 165.806H399.556L407.086 123.68H408.412L408.406 123.707L421.592 155.747L435.245 123.674ZM417.467 165.431L417.749 164.76L406.082 136.668L405.888 137.755L417.467 165.431ZM418.465 163.085L418.792 162.32L406.698 133.208L406.504 134.295L418.465 163.085ZM419.507 160.64L419.834 159.875L407.318 129.748L407.124 130.835L419.507 160.64ZM420.55 158.194L420.871 157.434L407.973 126.094L407.746 127.375L420.55 158.194ZM437.228 123.678H438.553L446.083 165.804H444.763L437.228 123.678ZM439.16 123.678H440.485L448.015 165.804H446.69L439.16 123.678ZM441.088 123.678H442.408L449.944 165.804H448.618L441.088 123.678ZM444.337 123.678L451.873 165.804H450.547L443.017 123.678H444.337ZM464.131 165.808H462.828V123.669H464.131V165.808ZM466.138 165.808H464.835V123.669H466.138V165.808ZM468.152 165.808H466.848V123.669H468.152V165.808ZM470.159 165.808H468.856V123.669H470.159V165.808ZM487.454 124.967L472.172 124.967V125.677H487.454V126.98H472.172V127.685H487.454V128.988H472.172V129.697H487.454V131H472.172V131.705H487.454V133.008H472.172V141.104H483.29V142.407H472.172V143.117H483.29V144.414H472.172V145.124H483.29V146.427H472.172V147.131H483.29V148.434H472.172V149.144H483.29V150.447H472.172V156.463H487.454V157.767H472.172V158.471H487.454V159.774H472.172V160.484H487.454V161.781H472.172V162.491H487.454V163.794H472.172V164.498H487.454V165.801H470.869V123.669H487.454V124.967ZM499.686 165.802H498.383V123.736H499.686V165.802ZM501.699 165.802H500.396V123.736H501.699V165.802ZM503.706 165.802H502.403V123.736H503.706V165.802ZM505.719 165.802H504.416V123.736H505.719V165.802ZM532.752 123.738L534.055 123.738V165.804H532.447L507.727 126.001V127.154L507.738 127.149L531.743 165.803H530.212L507.726 129.599V130.73L529.507 165.804H527.977L507.726 133.199V134.33L527.273 165.802H525.737L507.726 136.796V137.927L525.038 165.803H523.502L507.726 140.395V165.803H506.423V138.299L506.412 138.277L506.423 138.271V123.737H507.854L524.711 150.881V123.737H526.014V152.977L526.724 154.113V123.738H528.021V156.214L528.731 157.351V123.735H530.034V159.445L530.738 160.588V123.735H532.041V162.685L532.751 163.822L532.752 123.738ZM569.606 125.178H543.461V123.875H569.606V125.178ZM569.606 127.192H543.461V125.888H569.606V127.192ZM569.606 129.199H543.461V127.896H569.606V129.199ZM569.606 131.212H543.461V129.909H569.606V131.212ZM543.461 133.219V131.916H569.612V133.219H561.206V165.801H559.908V133.219H559.198V165.801H557.895V133.219H557.191V165.801H555.888V133.219H555.178V165.801H553.875V133.219H553.171V165.801H551.868V133.219H543.461Z" fill="#D00019"/>
<path d="M135.448 56.9494C135.205 54.2611 132.95 52.1992 130.249 52.1992H15.6585C12.7771 52.1992 10.4386 54.5377 10.4386 57.4192V67.0108L0.267538 97.5291C-0.262285 99.1212 0.00393022 100.87 0.985278 102.232C1.96662 103.595 3.54044 104.399 5.21864 104.399H10.4386V125.278C10.4386 133.915 17.462 140.938 26.0984 140.938H41.7582V161.818C41.7582 164.699 44.0967 167.038 46.9781 167.038H109.617C112.499 167.038 114.837 164.699 114.837 161.818V125.278C114.837 117.297 118.619 110.775 122.996 103.224C128.96 92.9408 135.717 81.2847 135.717 62.6391C135.717 60.8095 135.628 58.9486 135.448 56.9494Z" fill="#D00019"/>
<path d="M88.7376 10.4399C88.7376 4.69794 84.0397 0 78.2978 0H67.8579C62.116 0 57.418 4.69794 57.418 10.4399V46.9794H88.7376V10.4399Z" fill="#D00019"/>
<path d="M52.198 20.8796H26.0983V46.9793H52.198V20.8796Z" fill="#D00019"/>
<path d="M52.198 10.4399C52.198 4.69794 47.5001 0 41.7581 0H36.5382C30.7963 0 26.0983 4.69794 26.0983 10.4399V15.6598H52.198V10.4399Z" fill="#D00019"/>
<path d="M120.057 20.8796H93.9576V46.9793H120.057V20.8796Z" fill="#D00019"/>
<path d="M120.057 10.4399C120.057 4.69794 115.359 0 109.617 0H104.397C98.6555 0 93.9576 4.69794 93.9576 10.4399V15.6598H120.057V10.4399Z" fill="#D00019"/>
</svg>
