<svg width="136" height="167" viewBox="0 0 136 167" fill="none" xmlns="http://www.w3.org/2000/svg">
<path d="M135.448 56.9494C135.205 54.2611 132.95 52.1992 130.249 52.1992H15.6585C12.7771 52.1992 10.4386 54.5377 10.4386 57.4192V67.0108L0.267538 97.5291C-0.262285 99.1212 0.00393022 100.87 0.985278 102.232C1.96662 103.595 3.54044 104.399 5.21864 104.399H10.4386V125.278C10.4386 133.915 17.462 140.938 26.0984 140.938H41.7582V161.818C41.7582 164.699 44.0967 167.038 46.9781 167.038H109.617C112.499 167.038 114.837 164.699 114.837 161.818V125.278C114.837 117.297 118.619 110.775 122.996 103.224C128.96 92.9408 135.717 81.2847 135.717 62.6391C135.717 60.8095 135.628 58.9486 135.448 56.9494Z" fill="#FFCC00"/>
<path d="M88.7376 10.4399C88.7376 4.69794 84.0397 0 78.2978 0H67.8579C62.116 0 57.418 4.69794 57.418 10.4399V46.9794H88.7376V10.4399Z" fill="#FFCC00"/>
<path d="M52.198 20.8796H26.0983V46.9793H52.198V20.8796Z" fill="#FFCC00"/>
<path d="M52.198 10.4399C52.198 4.69794 47.5001 0 41.7581 0H36.5382C30.7963 0 26.0983 4.69794 26.0983 10.4399V15.6598H52.198V10.4399Z" fill="#FFCC00"/>
<path d="M120.057 20.8796H93.9576V46.9793H120.057V20.8796Z" fill="#FFCC00"/>
<path d="M120.057 10.4399C120.057 4.69794 115.359 0 109.617 0H104.397C98.6555 0 93.9576 4.69794 93.9576 10.4399V15.6598H120.057V10.4399Z" fill="#FFCC00"/>
</svg>
