<?xml version="1.0" standalone="no"?>
<!DOCTYPE svg PUBLIC "-//W3C//DTD SVG 20010904//EN"
 "http://www.w3.org/TR/2001/REC-SVG-20010904/DTD/svg10.dtd">
<svg version="1.0" xmlns="http://www.w3.org/2000/svg"
 width="512.000000pt" height="512.000000pt" viewBox="0 0 512.000000 512.000000"
 preserveAspectRatio="xMidYMid meet">
<metadata>
Created by potrace 1.14, written by Peter Selinger 2001-2017
</metadata>
<g transform="translate(0.000000,512.000000) scale(0.100000,-0.100000)"
fill="#000000" stroke="none">
<path d="M0 2560 l0 -2560 2560 0 2560 0 0 2560 0 2560 -2560 0 -2560 0 0
-2560z m2268 1252 c46 -33 72 -90 72 -157 l0 -55 -206 0 -207 0 5 64 c7 78 34
128 86 156 30 17 53 20 127 18 76 -3 95 -7 123 -26z m560 0 c18 -13 41 -41 52
-62 19 -36 20 -60 20 -335 l0 -295 -246 0 -245 0 3 303 c3 297 3 303 26 340
41 66 77 77 227 74 118 -2 133 -4 163 -25z m480 0 c46 -33 72 -90 72 -157 l0
-55 -206 0 -207 0 5 64 c7 78 34 128 86 156 30 17 53 20 127 18 76 -3 95 -7
123 -26z m-968 -492 l0 -200 -205 0 -205 0 0 200 0 200 205 0 205 0 0 -200z
m1040 0 l0 -200 -205 0 -205 0 0 200 0 200 205 0 205 0 0 -200z m206 -303 c23
-20 27 -33 31 -94 6 -79 -10 -218 -34 -308 -26 -96 -76 -206 -162 -358 -78
-138 -106 -200 -115 -255 -2 -15 -5 -172 -5 -348 l-1 -321 -26 -27 -27 -26
-512 0 -512 0 -24 26 c-23 25 -24 31 -27 200 l-3 174 -142 0 c-128 0 -147 3
-193 24 -28 13 -65 41 -82 62 -51 62 -62 115 -62 306 l0 168 -53 0 c-55 0 -85
18 -101 64 -4 11 25 112 73 260 72 219 80 249 83 333 3 81 6 94 27 117 l24 26
908 0 908 0 27 -23z"/>
</g>
</svg>
